<svg viewBox="0 0 720 420" preserveAspectRatio="xMidYMid meet" xmlns="http://www.w3.org/2000/svg">
  <rect width="720" height="420" rx="12" fill="#1a1a1a" stroke="#2a2a2a" stroke-width="1"/>
  <rect x="0" y="0" width="720" height="36" rx="12" fill="#222"/>
  <rect x="0" y="16" width="720" height="20" fill="#222"/>
  <circle cx="20" cy="18" r="6" fill="#ff5f57"/>
  <circle cx="40" cy="18" r="6" fill="#febc2e"/>
  <circle cx="60" cy="18" r="6" fill="#28c840"/>
  <text x="360" y="22" text-anchor="middle" font-family="-apple-system, sans-serif" font-size="12" fill="#666">Deks — Workspace Config</text>
  <text x="20" y="68" font-family="-apple-system, sans-serif" font-size="16" font-weight="500" fill="#e0e0e0">School</text>
  <text x="20" y="86" font-family="-apple-system, sans-serif" font-size="11" fill="#666">3 windows assigned</text>
  <g>
    <circle cx="620" cy="72" r="10" fill="#1D9E75" stroke="#e0e0e0" stroke-width="2"/>
    <circle cx="648" cy="72" r="10" fill="#7F77DD"/>
    <circle cx="676" cy="72" r="10" fill="#D85A30"/>
  </g>
  <line x1="0" y1="100" x2="720" y2="100" stroke="#2a2a2a" stroke-width="0.5"/>
  <line x1="370" y1="100" x2="370" y2="370" stroke="#2a2a2a" stroke-width="0.5"/>
  <text x="20" y="128" font-family="-apple-system, sans-serif" font-size="10" font-weight="500" fill="#666" letter-spacing="1">IN THIS WORKSPACE</text>
  <g transform="translate(16, 140)">
    <rect width="336" height="52" rx="8" fill="#1D9E75" opacity="0.12" stroke="#1D9E75" stroke-width="0.5" stroke-opacity="0.3"/>
    <rect x="12" y="12" width="28" height="28" rx="6" fill="#378ADD"/>
    <text x="26" y="30" text-anchor="middle" font-family="-apple-system, sans-serif" font-size="11" font-weight="600" fill="white">VS</text>
    <text x="52" y="26" font-family="-apple-system, sans-serif" font-size="13" font-weight="500" fill="#e0e0e0">VS Code</text>
    <text x="52" y="40" font-family="-apple-system, monospace" font-size="10" fill="#666">cs3100-project — window</text>
    <circle cx="290" cy="26" r="4" fill="#1D9E75"/>
    <text x="300" y="30" font-family="-apple-system, sans-serif" font-size="9" fill="#555">active</text>
  </g>
  <g transform="translate(16, 200)">
    <rect width="336" height="52" rx="8" fill="#7F77DD" opacity="0.12" stroke="#7F77DD" stroke-width="0.5" stroke-opacity="0.3"/>
    <rect x="12" y="12" width="28" height="28" rx="6" fill="#D85A30"/>
    <text x="26" y="30" text-anchor="middle" font-family="-apple-system, sans-serif" font-size="11" font-weight="600" fill="white">B</text>
    <text x="52" y="26" font-family="-apple-system, sans-serif" font-size="13" font-weight="500" fill="#e0e0e0">Brave</text>
    <text x="52" y="40" font-family="-apple-system, monospace" font-size="10" fill="#666">Canvas, Piazza — tab group</text>
    <circle cx="290" cy="26" r="4" fill="#888"/>
    <text x="300" y="30" font-family="-apple-system, sans-serif" font-size="9" fill="#555">idle</text>
  </g>
  <g transform="translate(16, 260)">
    <rect width="336" height="52" rx="8" fill="#D85A30" opacity="0.12" stroke="#D85A30" stroke-width="0.5" stroke-opacity="0.3"/>
    <rect x="12" y="12" width="28" height="28" rx="6" fill="#BA7517"/>
    <text x="26" y="30" text-anchor="middle" font-family="-apple-system, sans-serif" font-size="11" font-weight="600" fill="white">N</text>
    <text x="52" y="26" font-family="-apple-system, sans-serif" font-size="13" font-weight="500" fill="#e0e0e0">Notes</text>
    <text x="52" y="40" font-family="-apple-system, monospace" font-size="10" fill="#666">MATH 2321 — window</text>
    <circle cx="290" cy="26" r="4" fill="#888"/>
    <text x="300" y="30" font-family="-apple-system, sans-serif" font-size="9" fill="#555">idle</text>
  </g>
  <rect x="16" y="322" width="336" height="42" rx="8" stroke="#444" stroke-width="0.5" stroke-dasharray="5 4" fill="none"/>
  <text x="184" y="348" text-anchor="middle" font-family="-apple-system, sans-serif" font-size="11" fill="#555">Drag windows here or click + to add</text>
  <text x="390" y="128" font-family="-apple-system, sans-serif" font-size="10" font-weight="500" fill="#666" letter-spacing="1">AVAILABLE WINDOWS</text>
  <g transform="translate(386, 140)">
    <rect width="316" height="52" rx="8" fill="#222" stroke="#333" stroke-width="0.5"/>
    <rect x="12" y="12" width="28" height="28" rx="6" fill="#7F77DD"/>
    <text x="26" y="30" text-anchor="middle" font-family="-apple-system, sans-serif" font-size="11" font-weight="600" fill="white">D</text>
    <text x="52" y="26" font-family="-apple-system, sans-serif" font-size="13" font-weight="500" fill="#999">Discord</text>
    <text x="52" y="40" font-family="-apple-system, monospace" font-size="10" fill="#555">main window</text>
    <rect x="240" y="16" width="60" height="20" rx="4" fill="#2a2a2a"/>
    <text x="270" y="30" text-anchor="middle" font-family="-apple-system, sans-serif" font-size="9" fill="#666">Social</text>
  </g>
  <g transform="translate(386, 200)">
    <rect width="316" height="52" rx="8" fill="#222" stroke="#333" stroke-width="0.5"/>
    <rect x="12" y="12" width="28" height="28" rx="6" fill="#1D9E75"/>
    <text x="24" y="30" text-anchor="middle" font-family="-apple-system, sans-serif" font-size="11" font-weight="600" fill="white">S</text>
    <text x="52" y="24" font-family="-apple-system, sans-serif" font-size="13" font-weight="500" fill="#999">Spotify</text>
    <text x="52" y="40" font-family="-apple-system, monospace" font-size="10" fill="#555">player</text>
    <rect x="224" y="16" width="76" height="20" rx="4" fill="#2a2a2a"/>
    <text x="262" y="30" text-anchor="middle" font-family="-apple-system, sans-serif" font-size="9" fill="#666">unassigned</text>
  </g>
  <g transform="translate(386, 260)">
    <rect width="316" height="52" rx="8" fill="#222" stroke="#333" stroke-width="0.5"/>
    <rect x="12" y="12" width="28" height="28" rx="6" fill="#378ADD"/>
    <text x="24" y="30" text-anchor="middle" font-family="-apple-system, sans-serif" font-size="11" font-weight="600" fill="white">T</text>
    <text x="52" y="24" font-family="-apple-system, sans-serif" font-size="13" font-weight="500" fill="#999">Terminal</text>
    <text x="52" y="40" font-family="-apple-system, monospace" font-size="10" fill="#555">docker-eval — window</text>
    <rect x="224" y="16" width="76" height="20" rx="4" fill="#2a2a2a"/>
    <text x="262" y="30" text-anchor="middle" font-family="-apple-system, sans-serif" font-size="9" fill="#666">Datacurve</text>
  </g>
  <rect x="0" y="374" width="720" height="46" rx="0" fill="#1c1c1e" stroke="#2a2a2a" stroke-width="0.5"/>
  <rect x="0" y="408" width="720" height="12" rx="12" fill="#1c1c1e"/>
  <text x="20" y="402" font-family="-apple-system, sans-serif" font-size="11" fill="#666">Hotkey:</text>
  <rect x="68" y="388" width="36" height="22" rx="5" fill="#2a2a2a" stroke="#444" stroke-width="0.5"/>
  <text x="86" y="403" text-anchor="middle" font-family="-apple-system, monospace" font-size="11" fill="#e0e0e0">^1</text>
  <rect x="140" y="392" width="28" height="14" rx="7" fill="#1D9E75"/>
  <circle cx="161" cy="399" r="5" fill="white"/>
  <text x="176" y="403" font-family="-apple-system, sans-serif" font-size="11" fill="#666">Idle optimization</text>
  <text x="600" y="403" font-family="-apple-system, sans-serif" font-size="11" fill="#993C1D">Delete workspace</text>
</svg>
